<?xml version="1.0" standalone="no"?>
<!DOCTYPE svg PUBLIC "-//W3C//DTD SVG 20010904//EN"
 "http://www.w3.org/TR/2001/REC-SVG-20010904/DTD/svg10.dtd">
<svg version="1.0" xmlns="http://www.w3.org/2000/svg"
 width="2560.000000pt" height="527.000000pt" viewBox="0 0 2560.000000 527.000000"
 preserveAspectRatio="xMidYMid meet">

<g transform="translate(0.000000,527.000000) scale(0.100000,-0.100000)"
fill="#000000" stroke="none">
<path d="M9955 5260 c-297 -34 -554 -109 -785 -232 -570 -301 -946 -837 -1047
-1490 -23 -154 -23 -451 0 -608 139 -912 807 -1575 1717 -1704 242 -34 457
-30 687 15 679 131 1254 638 1484 1308 16 47 29 88 29 93 0 4 -184 8 -409 8
l-409 0 -51 -92 c-135 -243 -332 -428 -556 -522 -349 -146 -777 -120 -1108 66
-326 183 -553 499 -634 883 -24 112 -24 389 0 502 136 643 686 1075 1324 1039
222 -12 414 -66 575 -162 165 -98 340 -299 434 -498 l36 -76 404 0 c222 0 404
2 404 4 0 2 -16 53 -36 113 -41 122 -129 313 -194 418 -268 436 -684 745
-1185 882 -174 47 -503 73 -680 53z"/>
<path d="M24870 3235 l0 -1975 365 0 365 0 0 1975 0 1975 -365 0 -365 0 0
-1975z"/>
<path d="M13555 4009 c-529 -67 -978 -444 -1143 -960 -48 -149 -65 -264 -66
-434 0 -389 136 -726 404 -996 191 -192 384 -304 636 -369 726 -188 1470 236
1679 958 72 245 75 544 9 782 -68 247 -201 469 -388 648 -301 287 -716 423
-1131 371z m313 -704 c252 -50 465 -263 527 -527 22 -94 20 -257 -6 -348 -93
-339 -395 -555 -725 -519 -100 11 -148 25 -239 72 -150 78 -277 233 -332 404
-37 116 -43 280 -14 393 35 141 90 240 190 341 69 69 103 94 171 128 141 69
274 86 428 56z"/>
<path d="M16870 4014 c-14 -2 -56 -9 -95 -15 -190 -31 -396 -139 -529 -279
l-55 -58 -3 152 -3 151 -365 0 -365 0 -3 -1978 -2 -1977 370 0 370 0 0 756 0
756 75 -70 c186 -174 533 -273 842 -242 510 52 929 384 1101 871 64 182 77
269 77 529 0 262 -9 330 -70 516 -147 447 -492 760 -955 865 -81 19 -332 33
-390 23z m79 -674 c316 -40 561 -273 616 -585 19 -110 19 -170 0 -280 -49
-277 -241 -490 -512 -567 -101 -29 -276 -31 -372 -4 -244 67 -424 254 -492
512 -27 102 -29 277 -4 384 60 266 267 478 517 529 106 22 144 24 247 11z"/>
<path d="M20009 4010 c-138 -17 -324 -85 -436 -161 -26 -18 -85 -69 -130 -113
l-83 -80 0 157 0 157 -365 0 -365 0 0 -1980 0 -1980 365 0 365 0 0 756 0 756
61 -56 c160 -148 371 -233 641 -256 509 -44 1006 231 1241 687 65 125 103 234
134 382 24 114 27 147 27 336 0 190 -3 222 -27 337 -31 148 -63 239 -124 363
-241 481 -761 758 -1304 695z m206 -687 c255 -64 450 -261 516 -523 31 -121
24 -311 -15 -425 -124 -363 -494 -565 -861 -470 -296 77 -495 337 -512 671
-17 338 158 622 449 728 128 47 285 54 423 19z"/>
<path d="M22958 4009 c-110 -13 -300 -70 -409 -123 -400 -191 -670 -537 -771
-987 -19 -89 -23 -132 -23 -294 0 -161 4 -207 23 -299 61 -284 173 -504 352
-690 151 -157 327 -269 526 -335 374 -124 827 -95 1164 74 289 146 494 382
641 737 l28 68 -391 -2 -392 -3 -31 -53 c-103 -176 -280 -264 -530 -264 -298
-1 -512 120 -632 357 -21 41 -63 149 -63 162 0 1 469 3 1041 3 l1042 0 -6 228
c-4 140 -11 254 -20 298 -120 570 -517 980 -1072 1104 -106 24 -358 34 -477
19z m380 -664 c109 -26 209 -82 288 -160 65 -65 122 -148 139 -202 l6 -23
-636 0 c-576 0 -637 2 -631 16 30 79 169 230 263 287 163 99 375 129 571 82z"/>
</g>
</svg>
