<?xml version="1.0" standalone="no"?>
<!DOCTYPE svg PUBLIC "-//W3C//DTD SVG 20010904//EN"
 "http://www.w3.org/TR/2001/REC-SVG-20010904/DTD/svg10.dtd">
<svg version="1.0" xmlns="http://www.w3.org/2000/svg"
 width="2954.000000pt" height="712.000000pt" viewBox="0 0 2954.000000 712.000000"
 preserveAspectRatio="xMidYMid meet">

<g transform="translate(0.000000,712.000000) scale(0.100000,-0.100000)"
fill="#000000" stroke="none">
<path d="M3702 7045 c-237 -198 -415 -502 -502 -855 -41 -171 -54 -285 -55
-485 0 -252 16 -279 60 -99 83 344 246 641 503 917 l67 72 -5 80 c-7 103 4
255 26 351 11 50 13 79 6 86 -6 6 -40 -16 -100 -67z"/>
<path d="M3797 6193 c-63 -136 -80 -273 -53 -415 20 -101 46 -163 128 -300
106 -179 142 -305 137 -477 -2 -59 0 -86 9 -89 6 -2 42 9 79 23 64 26 185 58
266 70 l37 6 0 63 c0 137 -52 320 -140 496 -27 53 -99 172 -161 265 -101 153
-179 292 -223 398 -8 20 -21 37 -29 37 -8 0 -30 -35 -50 -77z"/>
<path d="M2881 5793 c-76 -263 -104 -459 -105 -733 0 -217 11 -332 49 -522 42
-209 111 -408 136 -393 5 4 23 34 41 68 39 79 125 163 211 207 37 19 67 39 67
43 0 4 -20 43 -45 85 -85 149 -171 363 -220 550 -51 193 -67 322 -72 570 -6
273 -14 289 -62 125z"/>
<path d="M3484 5813 c-32 -76 -74 -217 -94 -312 -61 -300 -43 -576 57 -871 36
-106 41 -110 100 -72 104 67 195 187 234 312 16 48 21 91 21 165 0 130 -20
194 -112 350 -89 152 -125 238 -146 351 -9 49 -18 95 -20 102 -7 23 -24 12
-40 -25z"/>
<path d="M27957 5203 c-2 -4 -244 -584 -537 -1288 l-534 -1281 -133 -69 c-129
-68 -133 -71 -133 -102 l0 -33 455 0 455 0 0 33 0 33 -172 71 c-117 48 -172
75 -170 84 1 8 68 177 149 377 l146 362 501 0 502 0 147 -357 c80 -197 149
-365 152 -374 5 -13 -28 -30 -174 -89 l-181 -72 0 -34 0 -34 550 0 550 0 0 34
c0 34 -2 36 -136 107 -107 58 -139 80 -151 104 -7 16 -247 593 -532 1280
l-518 1250 -116 3 c-63 1 -117 -1 -120 -5z m237 -1090 c108 -266 196 -485 196
-488 0 -3 -183 -5 -406 -5 -223 0 -404 4 -402 8 135 345 404 988 409 979 4 -7
95 -229 203 -494z"/>
<path d="M9527 5183 c-4 -3 -7 -19 -7 -35 0 -26 10 -33 170 -113 l170 -85 0
-1143 0 -1143 -167 -85 c-162 -81 -168 -85 -171 -116 l-3 -33 1110 0 1111 0 0
390 0 390 -35 0 -35 0 -137 -275 -138 -275 -542 0 -543 0 0 535 0 535 343 0
343 0 105 -167 c102 -165 105 -168 142 -171 l37 -3 0 466 0 466 -37 -3 c-37
-3 -39 -5 -142 -175 l-104 -173 -344 0 -343 0 0 490 0 490 488 0 487 0 114
-208 c159 -287 155 -282 191 -282 l30 0 0 365 0 365 -1043 0 c-574 0 -1047 -3
-1050 -7z"/>
<path d="M12942 4795 c-255 -56 -491 -259 -563 -485 -29 -89 -35 -225 -15
-318 22 -107 57 -175 127 -247 112 -117 148 -138 735 -420 147 -71 227 -135
265 -212 20 -41 23 -64 24 -153 0 -93 -3 -112 -26 -161 -64 -136 -218 -209
-444 -209 -164 0 -317 40 -432 112 -60 38 -62 41 -170 233 l-108 195 -38 0
-37 0 5 -37 c2 -21 9 -119 15 -218 6 -99 13 -211 17 -249 l6 -68 72 -33 c176
-81 328 -120 524 -136 230 -18 419 14 600 102 89 44 116 63 190 137 139 139
183 244 182 437 0 258 -88 397 -346 555 -44 26 -192 105 -330 175 -278 141
-374 200 -422 264 -94 122 -78 324 33 434 100 99 281 139 459 102 71 -15 191
-69 233 -104 12 -11 61 -93 108 -183 112 -213 109 -208 144 -208 29 0 30 1 30
48 0 26 -7 144 -15 262 -8 118 -15 222 -15 231 0 32 -250 128 -399 154 -104
18 -324 18 -409 0z"/>
<path d="M4280 4780 c-176 -49 -259 -96 -450 -255 -58 -48 -138 -111 -177
-139 -40 -27 -73 -53 -73 -56 0 -12 98 -168 142 -226 24 -32 46 -63 50 -69 10
-13 62 15 160 87 153 114 274 257 353 420 72 148 102 261 68 257 -4 0 -37 -9
-73 -19z"/>
<path d="M14270 4410 l0 -360 38 0 37 0 110 255 110 255 302 0 303 0 0 -964 0
-964 -97 -35 c-300 -108 -273 -95 -273 -133 l0 -34 585 0 585 0 0 34 0 33
-190 69 -190 69 0 963 0 962 306 -2 305 -3 112 -252 112 -253 38 0 37 0 0 360
0 360 -1115 0 -1115 0 0 -360z"/>
<path d="M16924 4756 c-17 -45 -3 -57 151 -126 l150 -68 2 -963 3 -964 -133
-59 c-172 -77 -177 -80 -177 -116 l0 -30 500 0 500 0 0 33 c0 31 -4 34 -138
104 l-137 71 -3 426 -2 426 127 0 128 -1 326 -527 325 -527 332 -3 332 -2 0
33 c0 34 -1 34 -137 99 l-138 65 -314 479 c-172 263 -315 484 -317 489 -3 6
26 24 63 40 287 125 434 358 395 626 -17 119 -64 209 -150 291 -103 97 -214
152 -387 191 -84 19 -130 21 -693 24 -527 4 -603 2 -608 -11z m1123 -224 c124
-40 202 -105 252 -211 24 -51 26 -66 26 -186 0 -125 -1 -133 -31 -195 -56
-117 -160 -195 -302 -226 -40 -8 -125 -14 -209 -14 l-143 0 0 431 0 432 173
-5 c135 -4 185 -10 234 -26z"/>
<path d="M19432 4734 l3 -37 145 -66 145 -67 3 -966 2 -966 -150 -68 c-149
-68 -150 -68 -150 -101 l0 -33 975 0 975 0 0 340 0 340 -36 0 -35 0 -115 -235
-115 -235 -465 0 -464 0 0 445 0 445 305 0 305 0 70 -140 c70 -140 70 -140
105 -140 l35 0 0 390 0 390 -37 0 -38 0 -67 -140 -67 -140 -305 0 -306 0 0
405 0 405 418 0 417 0 94 -173 c122 -222 125 -227 162 -227 l29 0 0 305 0 305
-921 0 -920 0 3 -36z"/>
<path d="M21902 4733 l3 -37 145 -66 145 -67 3 -965 2 -965 -150 -68 c-150
-68 -150 -68 -150 -101 l0 -34 960 0 960 0 0 411 0 410 -36 -3 -37 -3 -130
-302 -129 -303 -434 0 -434 0 2 962 3 961 165 67 165 67 0 34 0 34 -528 3
-528 2 3 -37z"/>
<path d="M24310 4733 l0 -38 148 -67 147 -67 3 -957 c1 -551 -2 -962 -7 -967
-5 -5 -71 -37 -147 -72 -138 -64 -139 -64 -142 -100 l-3 -35 960 0 961 0 0
410 0 410 -38 0 -37 0 -130 -305 -130 -305 -437 0 -438 0 0 959 0 960 82 33
c44 18 120 49 167 68 85 35 86 36 89 73 l3 37 -525 0 -526 0 0 -37z"/>
<path d="M5650 4749 c-407 -42 -827 -193 -1166 -418 -114 -75 -194 -144 -182
-156 3 -3 33 -10 67 -16 111 -17 207 -68 286 -148 21 -23 42 -41 45 -41 3 0
66 60 140 133 278 274 578 457 940 572 182 59 192 63 185 75 -7 12 -194 11
-315 -1z"/>
<path d="M6330 4579 c-132 -9 -280 -34 -390 -65 -122 -35 -278 -94 -283 -108
-3 -8 58 -11 242 -11 257 0 311 -5 492 -50 135 -34 252 -76 380 -136 l109 -52
80 32 c83 33 211 66 293 75 123 15 137 18 137 29 0 13 -131 98 -216 140 -79
40 -241 93 -351 116 -81 17 -361 46 -383 39 -3 0 -52 -4 -110 -9z"/>
<path d="M6 4572 c-2 -4 17 -61 44 -126 182 -438 642 -812 1182 -961 107 -29
118 -30 118 -11 0 7 -35 34 -77 58 -134 78 -243 166 -383 307 -146 147 -230
258 -327 433 l-63 112 -85 23 c-107 28 -208 70 -309 128 -83 47 -92 50 -100
37z"/>
<path d="M1651 4539 c-88 -11 -179 -33 -356 -84 -144 -41 -268 -66 -403 -80
-34 -4 -65 -12 -69 -18 -13 -21 125 -135 221 -183 166 -82 320 -93 541 -40 61
15 144 29 185 33 92 7 233 -16 325 -53 36 -15 68 -24 72 -21 3 4 7 73 8 154 1
81 6 171 10 199 l8 52 -54 15 c-124 36 -328 47 -488 26z"/>
<path d="M2394 4392 c-17 -11 -25 -139 -14 -237 13 -111 34 -185 115 -390 35
-88 66 -176 70 -195 15 -70 14 -70 107 -50 93 21 249 68 261 80 21 19 -67 279
-133 391 -93 157 -255 326 -385 402 -6 3 -16 3 -21 -1z"/>
<path d="M3314 4245 c-66 -34 -128 -104 -151 -168 -15 -44 -17 -77 -14 -222 2
-93 4 -219 5 -279 l1 -109 -59 -33 c-80 -44 -217 -88 -356 -115 -162 -31 -164
-31 -156 -77 23 -126 75 -199 181 -251 41 -21 143 -52 264 -82 233 -58 247
-63 255 -95 27 -107 25 -362 -4 -514 -14 -75 -5 -83 102 -83 70 0 91 4 133 25
64 34 140 113 202 210 26 42 79 127 118 187 l70 111 40 0 c91 0 298 -66 453
-144 39 -20 79 -36 87 -36 10 0 27 23 43 58 40 85 38 174 -5 265 -36 76 -58
106 -183 252 -47 55 -101 119 -119 142 l-32 42 21 48 c38 86 148 239 246 342
l97 102 -39 40 c-123 128 -247 131 -528 12 -175 -74 -237 -95 -263 -88 -48 12
-204 215 -298 387 -26 49 -50 90 -55 93 -4 2 -30 -7 -56 -20z"/>
<path d="M5755 4189 c-209 -20 -404 -77 -595 -175 -124 -63 -320 -198 -320
-220 0 -21 81 -86 144 -115 171 -79 349 -78 509 2 89 45 115 68 227 194 108
123 196 195 307 253 40 20 71 42 70 47 -7 22 -180 29 -342 14z"/>
<path d="M6285 4004 c-87 -19 -203 -72 -271 -124 -29 -22 -97 -90 -150 -150
-54 -61 -125 -132 -158 -157 -71 -54 -198 -115 -276 -134 -84 -20 -86 -24 -36
-83 54 -65 116 -156 150 -223 31 -62 39 -64 128 -26 211 91 362 218 576 488
74 94 186 220 250 282 l115 112 -29 12 c-49 19 -221 21 -299 3z"/>
<path d="M1600 3929 c-138 -32 -305 -40 -409 -20 -77 16 -88 1 -36 -45 78 -67
262 -184 375 -238 231 -109 413 -150 670 -151 l165 0 -2 45 c-3 71 -71 197
-147 273 -159 159 -344 200 -616 136z"/>
<path d="M4600 3564 c-36 -42 -85 -104 -109 -140 -44 -63 -44 -64 -25 -85 39
-43 172 -136 261 -182 106 -55 236 -99 343 -117 94 -16 265 -19 279 -5 19 19
-58 134 -154 231 -55 56 -125 114 -180 149 -210 134 -251 162 -288 193 -21 17
-44 32 -51 32 -6 0 -41 -34 -76 -76z"/>
<path d="M897 3374 c-14 -14 -6 -23 81 -82 392 -267 822 -418 1299 -453 167
-13 293 -6 293 15 0 7 -21 34 -47 62 -64 66 -110 156 -132 256 -21 97 -3 92
-191 59 -255 -45 -566 -39 -844 15 -104 20 -348 92 -437 128 -8 4 -18 3 -22 0z"/>
<path d="M4757 2802 c6 -117 -6 -181 -53 -274 -13 -26 -24 -53 -23 -60 0 -7
62 -43 137 -79 364 -177 681 -455 913 -801 57 -84 68 -95 82 -82 12 12 -77
245 -153 399 -132 267 -287 484 -494 690 -154 152 -361 315 -402 315 -10 0
-11 -24 -7 -108z"/>
<path d="M2740 2669 c-174 -23 -421 -129 -545 -234 -35 -30 -38 -35 -25 -48
23 -22 138 -64 226 -82 68 -14 119 -16 376 -9 l296 7 6 30 c4 17 9 98 13 179
l6 147 -27 11 c-32 12 -232 11 -326 -1z"/>
<path d="M4005 2497 c-20 -31 -71 -188 -91 -282 -23 -111 -23 -333 0 -440 26
-120 59 -209 78 -213 26 -5 123 121 178 233 38 75 62 147 99 291 28 105 59
215 71 244 20 51 20 55 4 67 -22 16 -199 85 -272 107 -51 15 -53 14 -67 -7z"/>
<path d="M4525 2243 c-47 -112 -56 -236 -25 -357 27 -105 74 -189 145 -261 71
-72 113 -97 264 -160 134 -56 237 -123 320 -206 90 -90 98 -80 55 67 -82 285
-237 541 -447 740 -97 91 -259 214 -283 214 -8 0 -21 -17 -29 -37z"/>
<path d="M1958 2172 c-118 -182 -173 -393 -188 -717 -11 -218 -31 -406 -55
-497 -9 -31 -11 -56 -5 -62 24 -24 181 74 264 166 60 66 125 181 150 268 9 30
23 120 31 198 8 79 22 172 31 205 22 87 74 190 139 275 30 40 55 77 55 81 0 4
-44 19 -97 34 -54 15 -136 45 -181 67 -46 22 -89 40 -95 40 -7 0 -29 -26 -49
-58z"/>
<path d="M2793 2085 c-139 -38 -276 -139 -346 -256 -53 -90 -73 -164 -87 -319
-15 -167 -38 -260 -93 -373 -24 -48 -40 -93 -36 -99 16 -25 222 125 359 262
125 125 216 247 288 389 81 158 156 365 145 399 -6 17 -162 15 -230 -3z"/>
<path d="M3615 2064 c-83 -48 -230 -67 -330 -44 -22 5 -43 6 -47 2 -4 -4 -14
-63 -24 -132 -54 -400 -216 -788 -466 -1118 -43 -56 -78 -107 -78 -112 0 -60
341 234 522 450 146 174 296 417 383 620 48 113 101 265 110 318 6 37 5 42
-12 41 -10 -1 -36 -12 -58 -25z"/>
<path d="M5373 1673 c3 -10 26 -67 51 -128 119 -291 163 -645 120 -974 l-15
-120 54 -68 c82 -103 114 -155 169 -269 27 -57 54 -104 59 -104 5 0 14 12 20
27 74 196 78 562 8 828 -70 267 -210 545 -382 755 -54 66 -97 93 -84 53z"/>
<path d="M4287 1587 c-31 -46 -86 -115 -122 -155 -52 -55 -65 -76 -60 -92 4
-11 45 -60 93 -109 148 -150 328 -255 622 -361 170 -62 279 -111 374 -168 78
-48 96 -52 96 -19 -1 51 -32 166 -64 232 -73 154 -186 264 -343 336 -48 22
-122 56 -163 75 -134 62 -236 153 -325 287 -21 31 -41 57 -45 57 -5 0 -33 -37
-63 -83z"/>
<path d="M22670 1278 c-6 -13 -106 -248 -223 -523 l-213 -500 -52 -30 c-31
-18 -52 -37 -52 -47 0 -17 15 -18 185 -18 174 0 185 1 185 19 0 14 -16 24 -62
41 -35 13 -67 26 -71 30 -5 4 18 72 50 151 l59 144 209 0 209 0 58 -135 c31
-74 57 -140 57 -146 1 -7 -28 -24 -64 -39 -47 -20 -65 -33 -65 -47 0 -17 13
-18 230 -18 216 0 230 1 230 18 0 12 -19 27 -58 46 l-58 28 -221 521 -221 522
-51 3 c-45 3 -52 0 -61 -20z m99 -434 l79 -189 -78 -3 c-44 -1 -117 -1 -164 0
l-84 3 69 170 c87 215 89 219 94 213 3 -3 41 -90 84 -194z"/>
<path d="M14170 1274 c0 -14 21 -28 75 -53 l75 -33 0 -463 0 -463 -75 -33
c-56 -24 -75 -37 -75 -52 0 -19 9 -19 318 -14 355 5 378 8 519 77 196 96 305
285 305 530 0 156 -45 265 -148 359 -68 62 -149 105 -253 133 -68 19 -112 21
-408 26 -320 4 -333 3 -333 -14z m628 -104 c107 -25 207 -99 255 -189 54 -98
70 -244 42 -376 -50 -235 -211 -345 -506 -345 l-69 0 0 467 0 466 118 -6 c64
-4 136 -11 160 -17z"/>
<path d="M15970 1272 c0 -14 20 -28 70 -51 l70 -33 0 -462 0 -463 -70 -32
c-51 -24 -70 -38 -70 -52 0 -18 13 -19 465 -19 l465 0 0 165 c0 153 -1 165
-18 165 -14 0 -33 -30 -73 -112 l-54 -113 -222 -3 -223 -2 0 220 0 220 145 0
145 0 35 -70 c58 -114 65 -101 65 115 0 173 -1 185 -18 185 -14 0 -27 -18 -47
-65 l-27 -65 -149 0 -149 0 0 195 0 195 201 -2 201 -3 51 -92 c36 -65 56 -93
69 -93 17 0 18 10 16 143 l-3 142 -437 3 c-421 2 -438 2 -438 -16z"/>
<path d="M17550 1272 c0 -13 21 -28 75 -51 l75 -33 0 -463 0 -462 -75 -33
c-55 -24 -75 -38 -75 -51 0 -18 18 -19 460 -19 l460 0 0 201 c0 251 -6 254
-94 49 l-62 -145 -209 0 -210 0 -3 461 -2 461 82 34 c51 21 83 40 83 49 0 13
-38 15 -252 18 -240 2 -253 1 -253 -16z"/>
<path d="M20050 1272 c0 -14 18 -27 68 -47 37 -15 71 -31 75 -35 7 -6 -16
-694 -29 -858 l-6 -73 -69 -31 c-50 -22 -69 -36 -69 -49 0 -18 12 -19 205 -19
193 0 205 1 205 19 0 13 -19 26 -72 49 l-73 30 4 219 c2 120 7 306 10 413 l6
195 204 -463 205 -462 32 0 32 0 208 453 c114 248 211 456 216 461 4 6 9 -55
9 -135 1 -79 4 -264 8 -411 l6 -267 -67 -32 c-47 -23 -68 -38 -68 -51 0 -17
13 -18 232 -16 199 3 233 5 236 18 2 10 -19 26 -62 47 l-64 32 -6 103 c-10
171 -27 828 -22 836 2 4 36 18 75 32 53 18 71 29 71 42 0 17 -12 18 -186 16
l-186 -3 -185 -402 c-102 -222 -189 -403 -193 -403 -4 0 -87 181 -186 403
l-180 402 -192 3 c-182 2 -192 1 -192 -16z"/>
<path d="M23926 1281 c-11 -18 1 -28 74 -62 l70 -32 0 -462 0 -463 -75 -33
c-53 -23 -75 -38 -73 -48 3 -14 35 -16 241 -19 223 -2 237 -1 237 16 0 12 -21
28 -65 50 l-65 32 0 210 0 210 58 0 57 0 160 -260 160 -260 158 0 c146 0 157
1 157 18 0 13 -20 28 -66 50 l-66 30 -130 199 c-72 109 -141 214 -154 235
l-23 36 53 26 c113 55 170 139 170 251 0 132 -74 217 -229 263 -64 19 -639 30
-649 13z m527 -105 c96 -29 146 -94 147 -189 0 -132 -80 -204 -241 -214 l-89
-6 0 212 0 211 68 0 c38 0 89 -6 115 -14z"/>
<path d="M2674 1099 c-76 -85 -310 -244 -476 -324 -176 -85 -476 -175 -581
-175 -21 0 -37 -18 -93 -102 -44 -67 -105 -139 -172 -206 -58 -57 -101 -107
-96 -111 14 -12 228 7 320 29 313 74 606 248 859 511 128 133 285 344 285 384
0 22 -24 19 -46 -6z"/>
<path d="M12100 680 l0 -70 275 0 275 0 0 70 0 70 -275 0 -275 0 0 -70z"/>
<path d="M26410 680 l0 -70 275 0 275 0 0 70 0 70 -275 0 -275 0 0 -70z"/>
</g>
</svg>
