<?xml version="1.0" standalone="no"?>
<!DOCTYPE svg PUBLIC "-//W3C//DTD SVG 20010904//EN"
 "http://www.w3.org/TR/2001/REC-SVG-20010904/DTD/svg10.dtd">
<svg version="1.0" xmlns="http://www.w3.org/2000/svg"
 width="189.000000pt" height="112.000000pt" viewBox="0 0 189.000000 112.000000"
 preserveAspectRatio="xMidYMid meet">

<g transform="translate(0.000000,112.000000) scale(0.100000,-0.100000)"
fill="#000000" stroke="none">
<path d="M1082 500 c-51 -31 -68 -102 -36 -148 9 -13 40 -37 71 -54 64 -36 73
-52 45 -81 -18 -17 -25 -19 -46 -9 -14 6 -28 23 -32 37 -7 30 -12 30 -43 6
-19 -15 -22 -21 -13 -38 15 -27 71 -53 115 -53 50 0 100 37 111 83 14 55 -1
87 -59 124 -78 50 -87 60 -75 83 15 28 56 26 75 -4 14 -22 20 -23 46 -14 35
12 36 18 7 46 -49 45 -114 54 -166 22z"/>
<path d="M300 340 l0 -170 45 0 45 0 0 145 0 145 33 0 c38 0 50 -7 66 -37 28
-53 6 -104 -51 -118 -49 -12 -34 -35 23 -35 43 0 55 5 80 29 24 24 29 38 29
76 0 101 -46 135 -185 135 l-85 0 0 -170z"/>
<path d="M600 340 l0 -170 45 0 45 0 0 170 0 170 -45 0 -45 0 0 -170z"/>
<path d="M730 340 l0 -170 25 0 c24 0 24 2 27 93 l3 92 58 -92 59 -93 44 0 44
0 0 170 0 170 -25 0 c-24 0 -24 -1 -27 -102 l-3 -103 -65 103 c-64 100 -66
102 -102 102 l-38 0 0 -170z"/>
<path d="M1375 498 c-17 -46 -105 -314 -105 -320 0 -4 11 -8 24 -8 21 0 27 11
61 120 21 66 42 117 45 113 7 -8 60 -149 60 -159 0 -2 -25 -4 -55 -4 -42 0
-55 -3 -55 -15 0 -12 13 -15 61 -15 52 0 62 -3 66 -20 5 -17 14 -20 60 -20 49
0 54 2 48 18 -4 9 -27 73 -52 142 -25 69 -49 137 -55 153 -9 24 -15 27 -54 27
-27 0 -47 -5 -49 -12z"/>
</g>
</svg>
